<svg xmlns="http://www.w3.org/2000/svg" xmlns:xlink="http://www.w3.org/1999/xlink" id="visual" version="1.1" viewBox="0 0 900 300"><rect x="0" y="0" width="900" height="300" fill="#000000"/><path d="M0 230L15 218.5C30 207 60 184 90 176.3C120 168.7 150 176.3 180 185C210 193.7 240 203.3 270 203.5C300 203.7 330 194.3 360 193.7C390 193 420 201 450 198.8C480 196.7 510 184.3 540 175.8C570 167.3 600 162.7 630 159.2C660 155.7 690 153.3 720 160.8C750 168.3 780 185.7 810 195.2C840 204.7 870 206.3 885 207.2L900 208L900 0L885 0C870 0 840 0 810 0C780 0 750 0 720 0C690 0 660 0 630 0C600 0 570 0 540 0C510 0 480 0 450 0C420 0 390 0 360 0C330 0 300 0 270 0C240 0 210 0 180 0C150 0 120 0 90 0C60 0 30 0 15 0L0 0Z" fill="#5ac724"/><path d="M0 201L15 193.8C30 186.7 60 172.3 90 159.7C120 147 150 136 180 132.5C210 129 240 133 270 134.8C300 136.7 330 136.3 360 146.7C390 157 420 178 450 176.7C480 175.3 510 151.7 540 152.7C570 153.7 600 179.3 630 178C660 176.7 690 148.3 720 138.3C750 128.3 780 136.7 810 136.8C840 137 870 129 885 125L900 121L900 0L885 0C870 0 840 0 810 0C780 0 750 0 720 0C690 0 660 0 630 0C600 0 570 0 540 0C510 0 480 0 450 0C420 0 390 0 360 0C330 0 300 0 270 0C240 0 210 0 180 0C150 0 120 0 90 0C60 0 30 0 15 0L0 0Z" fill="#399f2c"/><path d="M0 151L15 149.5C30 148 60 145 90 145.8C120 146.7 150 151.3 180 143C210 134.7 240 113.3 270 107.8C300 102.3 330 112.7 360 120.2C390 127.7 420 132.3 450 133.7C480 135 510 133 540 127.8C570 122.7 600 114.3 630 115.5C660 116.7 690 127.3 720 127.5C750 127.7 780 117.3 810 115.3C840 113.3 870 119.7 885 122.8L900 126L900 0L885 0C870 0 840 0 810 0C780 0 750 0 720 0C690 0 660 0 630 0C600 0 570 0 540 0C510 0 480 0 450 0C420 0 390 0 360 0C330 0 300 0 270 0C240 0 210 0 180 0C150 0 120 0 90 0C60 0 30 0 15 0L0 0Z" fill="#21782b"/><path d="M0 87L15 87.7C30 88.3 60 89.7 90 85.8C120 82 150 73 180 74C210 75 240 86 270 85.5C300 85 330 73 360 66.8C390 60.7 420 60.3 450 69.7C480 79 510 98 540 99C570 100 600 83 630 76.3C660 69.7 690 73.3 720 72C750 70.7 780 64.3 810 70.5C840 76.7 870 95.3 885 104.7L900 114L900 0L885 0C870 0 840 0 810 0C780 0 750 0 720 0C690 0 660 0 630 0C600 0 570 0 540 0C510 0 480 0 450 0C420 0 390 0 360 0C330 0 300 0 270 0C240 0 210 0 180 0C150 0 120 0 90 0C60 0 30 0 15 0L0 0Z" fill="#125324"/><path d="M0 51L15 49C30 47 60 43 90 44.5C120 46 150 53 180 53.3C210 53.7 240 47.3 270 43.3C300 39.3 330 37.7 360 39.2C390 40.7 420 45.3 450 50.3C480 55.3 510 60.7 540 61.3C570 62 600 58 630 59C660 60 690 66 720 63.3C750 60.7 780 49.3 810 45.3C840 41.3 870 44.7 885 46.3L900 48L900 0L885 0C870 0 840 0 810 0C780 0 750 0 720 0C690 0 660 0 630 0C600 0 570 0 540 0C510 0 480 0 450 0C420 0 390 0 360 0C330 0 300 0 270 0C240 0 210 0 180 0C150 0 120 0 90 0C60 0 30 0 15 0L0 0Z" fill="#0c3019"/></svg>