<svg id="visual" viewBox="0 0 900 600" width="900" height="600" xmlns="http://www.w3.org/2000/svg" xmlns:xlink="http://www.w3.org/1999/xlink" version="1.1"><rect x="0" y="0" width="900" height="600" fill="#010e16"></rect><path d="M0 220L21.5 211.7C43 203.3 86 186.7 128.8 180.7C171.7 174.7 214.3 179.3 257.2 182.5C300 185.7 343 187.3 385.8 197.5C428.7 207.7 471.3 226.3 514.2 231C557 235.7 600 226.3 642.8 213.5C685.7 200.7 728.3 184.3 771.2 176.8C814 169.3 857 170.7 878.5 171.3L900 172L900 0L878.5 0C857 0 814 0 771.2 0C728.3 0 685.7 0 642.8 0C600 0 557 0 514.2 0C471.3 0 428.7 0 385.8 0C343 0 300 0 257.2 0C214.3 0 171.7 0 128.8 0C86 0 43 0 21.5 0L0 0Z" fill="#217a0f"></path><path d="M0 172L21.5 172.7C43 173.3 86 174.7 128.8 175.2C171.7 175.7 214.3 175.3 257.2 180C300 184.7 343 194.3 385.8 193C428.7 191.7 471.3 179.3 514.2 170C557 160.7 600 154.3 642.8 151.3C685.7 148.3 728.3 148.7 771.2 147.8C814 147 857 145 878.5 144L900 143L900 0L878.5 0C857 0 814 0 771.2 0C728.3 0 685.7 0 642.8 0C600 0 557 0 514.2 0C471.3 0 428.7 0 385.8 0C343 0 300 0 257.2 0C214.3 0 171.7 0 128.8 0C86 0 43 0 21.5 0L0 0Z" fill="#0e671a"></path><path d="M0 160L21.5 157.8C43 155.7 86 151.3 128.8 150.2C171.7 149 214.3 151 257.2 148.3C300 145.7 343 138.3 385.8 132.5C428.7 126.7 471.3 122.3 514.2 123.3C557 124.3 600 130.7 642.8 133.7C685.7 136.7 728.3 136.3 771.2 136.7C814 137 857 138 878.5 138.5L900 139L900 0L878.5 0C857 0 814 0 771.2 0C728.3 0 685.7 0 642.8 0C600 0 557 0 514.2 0C471.3 0 428.7 0 385.8 0C343 0 300 0 257.2 0C214.3 0 171.7 0 128.8 0C86 0 43 0 21.5 0L0 0Z" fill="#01551e"></path><path d="M0 59L21.5 64.3C43 69.7 86 80.3 128.8 80.7C171.7 81 214.3 71 257.2 71.7C300 72.3 343 83.7 385.8 90.2C428.7 96.7 471.3 98.3 514.2 99.2C557 100 600 100 642.8 92.7C685.7 85.3 728.3 70.7 771.2 66.2C814 61.7 857 67.3 878.5 70.2L900 73L900 0L878.5 0C857 0 814 0 771.2 0C728.3 0 685.7 0 642.8 0C600 0 557 0 514.2 0C471.3 0 428.7 0 385.8 0C343 0 300 0 257.2 0C214.3 0 171.7 0 128.8 0C86 0 43 0 21.5 0L0 0Z" fill="#00431e"></path><path d="M0 71L21.5 70.8C43 70.7 86 70.3 128.8 70C171.7 69.7 214.3 69.3 257.2 63.2C300 57 343 45 385.8 41.2C428.7 37.3 471.3 41.7 514.2 46.3C557 51 600 56 642.8 55.3C685.7 54.7 728.3 48.3 771.2 49.7C814 51 857 60 878.5 64.5L900 69L900 0L878.5 0C857 0 814 0 771.2 0C728.3 0 685.7 0 642.8 0C600 0 557 0 514.2 0C471.3 0 428.7 0 385.8 0C343 0 300 0 257.2 0C214.3 0 171.7 0 128.8 0C86 0 43 0 21.5 0L0 0Z" fill="#04321b"></path></svg>