<svg id="visual" viewBox="0 0 900 600" width="900" height="600" xmlns="http://www.w3.org/2000/svg" xmlns:xlink="http://www.w3.org/1999/xlink" version="1.1"><rect x="0" y="0" width="900" height="600" fill="#010e16"></rect><path d="M0 378L21.5 386.3C43 394.7 86 411.3 128.8 417.3C171.7 423.3 214.3 418.7 257.2 415.5C300 412.3 343 410.7 385.8 400.5C428.7 390.3 471.3 371.7 514.2 367C557 362.3 600 371.7 642.8 384.5C685.7 397.3 728.3 413.7 771.2 421.2C814 428.7 857 427.3 878.5 426.7L900 426L900 601L878.5 601C857 601 814 601 771.2 601C728.3 601 685.7 601 642.8 601C600 601 557 601 514.2 601C471.3 601 428.7 601 385.8 601C343 601 300 601 257.2 601C214.3 601 171.7 601 128.8 601C86 601 43 601 21.5 601L0 601Z" fill="#217a0f"></path><path d="M0 426L21.5 425.3C43 424.7 86 423.3 128.8 422.8C171.7 422.3 214.3 422.7 257.2 418C300 413.3 343 403.7 385.8 405C428.7 406.3 471.3 418.7 514.2 428C557 437.3 600 443.7 642.8 446.7C685.7 449.7 728.3 449.3 771.2 450.2C814 451 857 453 878.5 454L900 455L900 601L878.5 601C857 601 814 601 771.2 601C728.3 601 685.7 601 642.8 601C600 601 557 601 514.2 601C471.3 601 428.7 601 385.8 601C343 601 300 601 257.2 601C214.3 601 171.7 601 128.8 601C86 601 43 601 21.5 601L0 601Z" fill="#004c1e"></path><path d="M0 438L21.5 440.2C43 442.3 86 446.7 128.8 447.8C171.7 449 214.3 447 257.2 449.7C300 452.3 343 459.7 385.8 465.5C428.7 471.3 471.3 475.7 514.2 474.7C557 473.7 600 467.3 642.8 464.3C685.7 461.3 728.3 461.7 771.2 461.3C814 461 857 460 878.5 459.5L900 459L900 601L878.5 601C857 601 814 601 771.2 601C728.3 601 685.7 601 642.8 601C600 601 557 601 514.2 601C471.3 601 428.7 601 385.8 601C343 601 300 601 257.2 601C214.3 601 171.7 601 128.8 601C86 601 43 601 21.5 601L0 601Z" fill="#04321b"></path><path d="M0 539L21.5 533.7C43 528.3 86 517.7 128.8 517.3C171.7 517 214.3 527 257.2 526.3C300 525.7 343 514.3 385.8 507.8C428.7 501.3 471.3 499.7 514.2 498.8C557 498 600 498 642.8 505.3C685.7 512.7 728.3 527.3 771.2 531.8C814 536.3 857 530.7 878.5 527.8L900 525L900 601L878.5 601C857 601 814 601 771.2 601C728.3 601 685.7 601 642.8 601C600 601 557 601 514.2 601C471.3 601 428.7 601 385.8 601C343 601 300 601 257.2 601C214.3 601 171.7 601 128.8 601C86 601 43 601 21.5 601L0 601Z" fill="#004c1e"></path><path d="M0 527L21.5 527.2C43 527.3 86 527.7 128.8 528C171.7 528.3 214.3 528.7 257.2 534.8C300 541 343 553 385.8 556.8C428.7 560.7 471.3 556.3 514.2 551.7C557 547 600 542 642.8 542.7C685.7 543.3 728.3 549.7 771.2 548.3C814 547 857 538 878.5 533.5L900 529L900 601L878.5 601C857 601 814 601 771.2 601C728.3 601 685.7 601 642.8 601C600 601 557 601 514.2 601C471.3 601 428.7 601 385.8 601C343 601 300 601 257.2 601C214.3 601 171.7 601 128.8 601C86 601 43 601 21.5 601L0 601Z" fill="#217a0f"></path></svg>