<svg xmlns="http://www.w3.org/2000/svg" width="128" height="128" fill="none" viewBox="0 0 128 128"><ellipse cx="64" cy="92" stroke="#000" stroke-width="2" rx="40" ry="12"/><ellipse cx="64" cy="90" stroke="#000" stroke-width="2" rx="20" ry="6"/><path fill="#30F2C4" fill-rule="evenodd" d="M67 93C67 93 90 75 90 51C90 39 82.3333 27 67 27C51.6667 27 44 39 44 51C44 75 67 93 67 93ZM67 57C70.866 57 74 53.866 74 50C74 46.134 70.866 43 67 43C63.134 43 60 46.134 60 50C60 53.866 63.134 57 67 57Z" clip-rule="evenodd"/><path stroke="#000" stroke-linecap="round" stroke-linejoin="round" stroke-width="2" d="M64 90L63.3837 90.7875C63.7457 91.0708 64.2543 91.0708 64.6163 90.7875L64 90ZM64 90C64.6163 90.7875 64.6166 90.7872 64.6171 90.7869L64.6184 90.7859L64.6225 90.7826L64.637 90.7712L64.6904 90.7287C64.7367 90.6917 64.8041 90.6374 64.8912 90.5662C65.0654 90.4239 65.3184 90.2138 65.6391 89.9389C66.2803 89.3893 67.1924 88.5802 68.285 87.5351C70.4691 85.446 73.3806 82.408 76.2936 78.6084C82.1055 71.0277 88 60.3145 88 48C88 41.7981 86.0204 35.5579 82.0112 30.8515C77.9838 26.1237 71.9532 23 64 23C56.0468 23 50.0162 26.1237 45.9888 30.8515C41.9796 35.5579 40 41.7981 40 48C40 60.3145 45.8945 71.0277 51.7064 78.6084C54.6194 82.408 57.5309 85.446 59.715 87.5351C60.8076 88.5802 61.7197 89.3893 62.3609 89.9389C62.6816 90.2138 62.9346 90.4239 63.1088 90.5662C63.1959 90.6374 63.2633 90.6917 63.3096 90.7287L63.363 90.7712L63.3775 90.7826L63.3816 90.7859L63.3829 90.7869C63.3834 90.7872 63.3837 90.7875 64 90Z"/><circle cx="64" cy="47" r="8" stroke="#000" stroke-width="2"/></svg>