<svg id="visual" viewBox="0 0 900 600" width="900" height="600" xmlns="http://www.w3.org/2000/svg" xmlns:xlink="http://www.w3.org/1999/xlink" version="1.1"><g stroke-width="1" stroke-linejoin="bevel"><path d="M433 274L529 277L513 222Z" fill="#041f33" stroke="#041f33"></path><path d="M461 383L572 308L529 277Z" fill="#005051" stroke="#005051"></path><path d="M529 277L570 198L513 222Z" fill="#00484f" stroke="#00484f"></path><path d="M572 308L570 198L529 277Z" fill="#003747" stroke="#003747"></path><path d="M433 274L461 383L529 277Z" fill="#056b15" stroke="#056b15"></path><path d="M433 274L418 378L461 383Z" fill="#002f41" stroke="#002f41"></path><path d="M570 198L516 120L513 222Z" fill="#00484f" stroke="#00484f"></path><path d="M513 222L368 166L433 274Z" fill="#00404b" stroke="#00404b"></path><path d="M403 127L368 166L513 222Z" fill="#056b15" stroke="#056b15"></path><path d="M433 274L320 361L418 378Z" fill="#00404b" stroke="#00404b"></path><path d="M516 120L403 127L513 222Z" fill="#00404b" stroke="#00404b"></path><path d="M368 166L311 262L433 274Z" fill="#00273a" stroke="#00273a"></path><path d="M461 383L576 411L572 308Z" fill="#00584c" stroke="#00584c"></path><path d="M682 90L587 94L570 198Z" fill="#00584c" stroke="#00584c"></path><path d="M468 517L576 411L461 383Z" fill="#002f41" stroke="#002f41"></path><path d="M311 262L320 361L433 274Z" fill="#005f41" stroke="#005f41"></path><path d="M418 378L439 494L461 383Z" fill="#00273a" stroke="#00273a"></path><path d="M691 230L570 198L572 308Z" fill="#041f33" stroke="#041f33"></path><path d="M570 198L587 94L516 120Z" fill="#005051" stroke="#005051"></path><path d="M410 0L328 87L403 127Z" fill="#005f41" stroke="#005f41"></path><path d="M693 329L691 230L572 308Z" fill="#00404b" stroke="#00404b"></path><path d="M576 411L693 329L572 308Z" fill="#00484f" stroke="#00484f"></path><path d="M328 87L265 199L368 166Z" fill="#00584c" stroke="#00584c"></path><path d="M368 166L265 199L311 262Z" fill="#00484f" stroke="#00484f"></path><path d="M180 278L228 409L320 361Z" fill="#005f41" stroke="#005f41"></path><path d="M410 0L403 127L516 120Z" fill="#00484f" stroke="#00484f"></path><path d="M403 127L328 87L368 166Z" fill="#00404b" stroke="#00404b"></path><path d="M320 361L439 494L418 378Z" fill="#056b15" stroke="#056b15"></path><path d="M194 129L235 194L265 199Z" fill="#003747" stroke="#003747"></path><path d="M265 199L180 278L311 262Z" fill="#005f41" stroke="#005f41"></path><path d="M439 494L468 517L461 383Z" fill="#041f33" stroke="#041f33"></path><path d="M576 411L712 430L693 329Z" fill="#00404b" stroke="#00404b"></path><path d="M468 517L610 486L576 411Z" fill="#005051" stroke="#005051"></path><path d="M599 0L516 0L587 94Z" fill="#003747" stroke="#003747"></path><path d="M587 94L516 0L516 120Z" fill="#00484f" stroke="#00484f"></path><path d="M691 230L682 90L570 198Z" fill="#041f33" stroke="#041f33"></path><path d="M516 0L410 0L516 120Z" fill="#056b15" stroke="#056b15"></path><path d="M610 486L712 430L576 411Z" fill="#005f41" stroke="#005f41"></path><path d="M693 329L769 330L691 230Z" fill="#056b15" stroke="#056b15"></path><path d="M691 230L809 180L682 90Z" fill="#003747" stroke="#003747"></path><path d="M682 90L599 0L587 94Z" fill="#00273a" stroke="#00273a"></path><path d="M180 278L320 361L311 262Z" fill="#041f33" stroke="#041f33"></path><path d="M320 361L268 534L439 494Z" fill="#00584c" stroke="#00584c"></path><path d="M404 600L494 600L468 517Z" fill="#005f41" stroke="#005f41"></path><path d="M767 369L769 330L693 329Z" fill="#002f41" stroke="#002f41"></path><path d="M610 486L697 470L712 430Z" fill="#00662f" stroke="#00662f"></path><path d="M712 430L767 369L693 329Z" fill="#00584c" stroke="#00584c"></path><path d="M668 600L697 470L610 486Z" fill="#00404b" stroke="#00404b"></path><path d="M235 194L180 278L265 199Z" fill="#041f33" stroke="#041f33"></path><path d="M808 538L767 369L712 430Z" fill="#002f41" stroke="#002f41"></path><path d="M328 87L194 129L265 199Z" fill="#005051" stroke="#005051"></path><path d="M235 194L120 160L180 278Z" fill="#00273a" stroke="#00273a"></path><path d="M263 0L194 129L328 87Z" fill="#00662f" stroke="#00662f"></path><path d="M763 0L688 0L682 90Z" fill="#00484f" stroke="#00484f"></path><path d="M682 90L688 0L599 0Z" fill="#005f41" stroke="#005f41"></path><path d="M900 324L809 180L769 330Z" fill="#041f33" stroke="#041f33"></path><path d="M769 330L809 180L691 230Z" fill="#00584c" stroke="#00584c"></path><path d="M404 600L468 517L439 494Z" fill="#056b15" stroke="#056b15"></path><path d="M468 517L494 600L610 486Z" fill="#00584c" stroke="#00584c"></path><path d="M410 0L263 0L328 87Z" fill="#00662f" stroke="#00662f"></path><path d="M213 488L268 534L228 409Z" fill="#056b15" stroke="#056b15"></path><path d="M228 409L268 534L320 361Z" fill="#003747" stroke="#003747"></path><path d="M268 534L404 600L439 494Z" fill="#005f41" stroke="#005f41"></path><path d="M809 180L792 103L682 90Z" fill="#00484f" stroke="#00484f"></path><path d="M90 474L213 488L228 409Z" fill="#005051" stroke="#005051"></path><path d="M494 600L634 600L610 486Z" fill="#005f41" stroke="#005f41"></path><path d="M900 388L900 324L767 369Z" fill="#005f41" stroke="#005f41"></path><path d="M68 109L120 160L194 129Z" fill="#056b15" stroke="#056b15"></path><path d="M194 129L120 160L235 194Z" fill="#056b15" stroke="#056b15"></path><path d="M180 278L83 405L228 409Z" fill="#00484f" stroke="#00484f"></path><path d="M792 103L763 0L682 90Z" fill="#005f41" stroke="#005f41"></path><path d="M634 600L668 600L610 486Z" fill="#041f33" stroke="#041f33"></path><path d="M263 0L174 0L194 129Z" fill="#056b15" stroke="#056b15"></path><path d="M184 600L262 600L268 534Z" fill="#003747" stroke="#003747"></path><path d="M268 534L262 600L404 600Z" fill="#00484f" stroke="#00484f"></path><path d="M120 160L76 292L180 278Z" fill="#041f33" stroke="#041f33"></path><path d="M213 488L184 600L268 534Z" fill="#00273a" stroke="#00273a"></path><path d="M767 369L900 324L769 330Z" fill="#00273a" stroke="#00273a"></path><path d="M809 180L900 175L792 103Z" fill="#003747" stroke="#003747"></path><path d="M792 103L900 60L763 0Z" fill="#003747" stroke="#003747"></path><path d="M808 538L712 430L697 470Z" fill="#00404b" stroke="#00404b"></path><path d="M76 292L83 405L180 278Z" fill="#056b15" stroke="#056b15"></path><path d="M900 324L900 175L809 180Z" fill="#041f33" stroke="#041f33"></path><path d="M782 600L808 538L697 470Z" fill="#00662f" stroke="#00662f"></path><path d="M900 498L900 388L767 369Z" fill="#005f41" stroke="#005f41"></path><path d="M174 0L128 0L194 129Z" fill="#041f33" stroke="#041f33"></path><path d="M120 160L0 233L76 292Z" fill="#00662f" stroke="#00662f"></path><path d="M128 0L68 109L194 129Z" fill="#005f41" stroke="#005f41"></path><path d="M83 405L90 474L228 409Z" fill="#00273a" stroke="#00273a"></path><path d="M118 600L184 600L213 488Z" fill="#003747" stroke="#003747"></path><path d="M668 600L782 600L697 470Z" fill="#056b15" stroke="#056b15"></path><path d="M808 538L900 498L767 369Z" fill="#00273a" stroke="#00273a"></path><path d="M900 175L900 60L792 103Z" fill="#00273a" stroke="#00273a"></path><path d="M900 600L900 498L808 538Z" fill="#00484f" stroke="#00484f"></path><path d="M68 109L0 233L120 160Z" fill="#00404b" stroke="#00404b"></path><path d="M76 292L0 309L83 405Z" fill="#00584c" stroke="#00584c"></path><path d="M83 405L0 427L90 474Z" fill="#003747" stroke="#003747"></path><path d="M0 233L0 309L76 292Z" fill="#005f41" stroke="#005f41"></path><path d="M900 60L900 0L763 0Z" fill="#005051" stroke="#005051"></path><path d="M90 474L118 600L213 488Z" fill="#056b15" stroke="#056b15"></path><path d="M0 499L118 600L90 474Z" fill="#041f33" stroke="#041f33"></path><path d="M68 109L0 112L0 233Z" fill="#00484f" stroke="#00484f"></path><path d="M0 0L0 112L68 109Z" fill="#00273a" stroke="#00273a"></path><path d="M0 309L0 427L83 405Z" fill="#003747" stroke="#003747"></path><path d="M0 427L0 499L90 474Z" fill="#056b15" stroke="#056b15"></path><path d="M782 600L900 600L808 538Z" fill="#003747" stroke="#003747"></path><path d="M128 0L0 0L68 109Z" fill="#00404b" stroke="#00404b"></path><path d="M0 499L0 600L118 600Z" fill="#003747" stroke="#003747"></path></g></svg>