<svg id="SvgjsSvg1001" width="288" height="288" xmlns="http://www.w3.org/2000/svg" version="1.1" xmlns:xlink="http://www.w3.org/1999/xlink" xmlns:svgjs="http://svgjs.com/svgjs"><defs id="SvgjsDefs1002"></defs><g id="SvgjsG1008" transform="matrix(1,0,0,1,0,0)"><svg xmlns="http://www.w3.org/2000/svg" width="288" height="288" viewBox="0 0 48 48"><g transform="translate(0 -1004.362)" fill="#3b5441" class="color000 svgShape"><circle cx="24" cy="1028.362" r="24" fill="#107a8b" class="color3a6c87 svgShape"></circle><path style="line-height:normal;text-indent:0;text-align:start;text-decoration-line:none;text-decoration-style:solid;text-decoration-color:#000;text-transform:none;block-progression:tb;isolation:auto;mix-blend-mode:normal" fill="#83e85a" d="m 23.999989,1018.362 c -4.14637,0 -7.5,3.3535 -7.5,7.5 l 0,5 c 0,0 0,0 0,0 a 0.50004997,0.50004997 0 0 0 0.0098,0.1035 c 0.02564,0.3587 0.173745,0.6992 0.429687,0.9551 0.281138,0.2811 0.662859,0.4394 1.060547,0.4394 a 0.50005,0.50005 0 0 0 0.04297,0 c 0.116405,0.01 0.227134,0.056 0.310547,0.1387 0.09383,0.094 0.146484,0.2207 0.146485,0.3535 a 0.50005,0.50005 0 0 0 -5e-6,0.01 l 0,2.5 c 0,1.0994 0.900649,2 2,2 l 7,0 c 1.099351,0 2,-0.9006 2,-2 l 0,-2.4727 a 0.50005,0.50005 0 0 0 0,-0.033 c 1e-6,-0.1328 0.05265,-0.2597 0.146484,-0.3535 0.08433,-0.084 0.196604,-0.1291 0.314454,-0.1386 a 0.50005,0.50005 0 0 0 0.03906,0 c 0.397688,0 0.77941,-0.1584 1.060547,-0.4395 0.25687,-0.2568 0.404889,-0.5988 0.429687,-0.959 a 0.50004997,0.50004997 0 0 0 0.0098,-0.1055 l 0,-5 c 0,-4.1465 -3.35363,-7.5 -7.5,-7.5 z m 0,1 c 3.609652,0 6.5,2.8902 6.5,6.5 l 0,5 c -1e-6,0.1328 -0.05265,0.2596 -0.146484,0.3535 -0.08334,0.083 -0.194254,0.1264 -0.310547,0.1367 a 0.50005,0.50005 0 0 0 -0.04297,0 c -0.397688,0 -0.77941,0.1584 -1.060547,0.4395 -0.257031,0.257 -0.405034,0.5986 -0.429687,0.959 a 0.50005,0.50005 0 0 0 -0.0098,0.1074 l 0,2.5 c 0,0.5627 -0.437351,1 -1,1 l 0,-3 -1,0 0,3 -1,0 0,-3 -1,0 0,3 -1,0 0,-3 -1,0 0,3 -1,0 0,-3 -1,0 0,3 c -0.562649,0 -1,-0.4373 -1,-1 l 0,-2.4727 a 0.50005,0.50005 0 0 0 0,-0.033 0.50005,0.50005 0 0 0 -0.0098,-0.094 c -0.02292,-0.3633 -0.170778,-0.708 -0.429653,-0.9668 -0.281137,-0.2811 -0.66286,-0.4395 -1.060547,-0.4395 a 0.50005,0.50005 0 0 0 -0.04687,0 c -0.114853,-0.011 -0.224219,-0.055 -0.306641,-0.1367 -0.09383,-0.094 -0.146483,-0.2207 -0.146484,-0.3535 l 0,-5 c 0,-3.6098 2.890348,-6.5 6.5,-6.5 z m -3.988281,4.2676 a 0.50005,0.50005 0 0 0 -0.05078,0 0.50005,0.50005 0 0 0 -0.210938,0.064 c -1.047803,0.6049 -1.513421,1.8826 -1.099609,3.0196 0.413801,1.137 1.591695,1.8175 2.783203,1.6074 1.191546,-0.2101 2.066395,-1.2531 2.066405,-2.463 a 0.50005,0.50005 0 0 0 -0.25,-0.4316 l -3,-1.7324 a 0.50005,0.50005 0 0 0 -0.238281,-0.066 z m 8,0 a 0.50005,0.50005 0 0 0 -0.04883,0 0.50005,0.50005 0 0 0 -0.212891,0.064 l -3,1.7325 a 0.50005,0.50005 0 0 0 -0.249998,0.4315 c 10e-6,1.2099 0.874859,2.2529 2.066406,2.4629 1.191508,0.2101 2.369402,-0.4704 2.783203,-1.6074 0.413811,-1.137 -0.05181,-2.4146 -1.099609,-3.0195 a 0.50005,0.50005 0 0 0 -0.238281,-0.066 z m -0.09766,1.1269 c 0.475826,0.3994 0.715382,1.0167 0.496094,1.6192 -0.2501,0.6872 -0.949734,1.0918 -1.669922,0.9648 -0.630766,-0.1112 -1.045689,-0.6273 -1.154296,-1.2383 l 2.328124,-1.3457 z m -7.828124,0 2.328124,1.3438 c -0.108608,0.611 -0.52353,1.1271 -1.154296,1.2383 -0.720188,0.127 -1.419822,-0.2777 -1.669922,-0.9649 -0.219068,-0.6019 0.02133,-1.2176 0.496094,-1.6172 z m 3.917971,3.6035 a 0.50005,0.50005 0 0 0 -0.451172,0.2773 l -1.5,3 a 0.50005,0.50005 0 0 0 0.447266,0.7227 l 3,0 a 0.50005,0.50005 0 0 0 0.447266,-0.7227 l -1.5,-3 a 0.50005,0.50005 0 0 0 -0.44336,-0.2773 z m -0.0039,1.6191 0.691406,1.3809 -1.382812,0 0.691406,-1.3809 z" color="#000" font-family="sans-serif" font-weight="400" overflow="visible" class="colorfff svgShape"></path></g></svg></g></svg>