<svg id="visual" viewBox="0 0 900 600" width="900" height="600" xmlns="http://www.w3.org/2000/svg" xmlns:xlink="http://www.w3.org/1999/xlink" version="1.1"><rect x="0" y="0" width="900" height="600" fill="#020a17"></rect><path d="M0 381L21.5 402.3C43 423.7 86 466.3 128.8 486.8C171.7 507.3 214.3 505.7 257.2 495.5C300 485.3 343 466.7 385.8 458.2C428.7 449.7 471.3 451.3 514.2 460.2C557 469 600 485 642.8 478.5C685.7 472 728.3 443 771.2 435.8C814 428.7 857 443.3 878.5 450.7L900 458L900 601L878.5 601C857 601 814 601 771.2 601C728.3 601 685.7 601 642.8 601C600 601 557 601 514.2 601C471.3 601 428.7 601 385.8 601C343 601 300 601 257.2 601C214.3 601 171.7 601 128.8 601C86 601 43 601 21.5 601L0 601Z" fill="#105a05" stroke-linecap="round" stroke-linejoin="miter"></path></svg>